<svg xmlns="http://www.w3.org/2000/svg" xmlns:xlink="http://www.w3.org/1999/xlink" width="500" zoomAndPan="magnify" viewBox="0 0 375 374.999991" height="500" preserveAspectRatio="xMidYMid meet" version="1.0"><defs><g/><clipPath id="5292fbdaa2"><path d="M 132 99.941406 L 243 99.941406 L 243 174 L 132 174 Z M 132 99.941406 " clip-rule="nonzero"/></clipPath><clipPath id="348676f356"><path d="M 108.605469 147 L 266.105469 147 L 266.105469 200.441406 L 108.605469 200.441406 Z M 108.605469 147 " clip-rule="nonzero"/></clipPath></defs><g fill="#000000" fill-opacity="1"><g transform="translate(66.271091, 231.243633)"><g><path d="M 4.789062 0 L 7.808594 0 L 7.808594 -10.46875 L 12.027344 -10.46875 L 12.027344 -13.296875 L 0.570312 -13.296875 L 0.570312 -10.46875 L 4.789062 -10.46875 Z M 4.789062 0 "/></g></g></g><g fill="#000000" fill-opacity="1"><g transform="translate(82.665514, 231.243633)"><g><path d="M 9.820312 0 L 12.84375 0 L 12.84375 -13.296875 L 9.820312 -13.296875 L 9.820312 -8.1875 L 4.617188 -8.1875 L 4.617188 -13.296875 L 1.597656 -13.296875 L 1.597656 0 L 4.617188 0 L 4.617188 -5.355469 L 9.820312 -5.355469 Z M 9.820312 0 "/></g></g></g><g fill="#000000" fill-opacity="1"><g transform="translate(100.902562, 231.243633)"><g><path d="M 1.597656 0 L 10.542969 0 L 10.542969 -2.566406 L 4.597656 -2.566406 L 4.597656 -5.472656 L 9.820312 -5.472656 L 9.820312 -7.996094 L 4.597656 -7.996094 L 4.597656 -10.753906 L 10.335938 -10.753906 L 10.335938 -13.296875 L 1.597656 -13.296875 Z M 1.597656 0 "/></g></g></g><g fill="#000000" fill-opacity="1"><g transform="translate(116.214204, 231.243633)"><g/></g></g><g fill="#000000" fill-opacity="1"><g transform="translate(124.478285, 231.243633)"><g><path d="M 6.230469 0.265625 C 9.382812 0.265625 11.324219 -1.234375 11.324219 -3.742188 C 11.324219 -5.851562 9.9375 -7.105469 6.628906 -7.882812 C 4.597656 -8.359375 3.894531 -8.871094 3.894531 -9.6875 C 3.894531 -10.5625 4.671875 -11.09375 5.945312 -11.09375 C 7.332031 -11.09375 8.167969 -10.371094 8.167969 -9.175781 L 11.074219 -9.175781 C 11.074219 -11.855469 9.0625 -13.5625 5.910156 -13.5625 C 2.851562 -13.5625 0.949219 -12.0625 0.949219 -9.632812 C 0.949219 -7.464844 2.414062 -6.175781 5.527344 -5.507812 C 7.410156 -5.109375 8.265625 -4.558594 8.265625 -3.628906 C 8.265625 -2.734375 7.464844 -2.222656 6.210938 -2.222656 C 4.75 -2.222656 3.800781 -2.964844 3.800781 -4.238281 L 0.835938 -4.238281 C 0.835938 -1.480469 2.886719 0.265625 6.230469 0.265625 Z M 6.230469 0.265625 "/></g></g></g><g fill="#000000" fill-opacity="1"><g transform="translate(140.454792, 231.243633)"><g><path d="M 4.789062 0 L 7.808594 0 L 7.808594 -10.46875 L 12.027344 -10.46875 L 12.027344 -13.296875 L 0.570312 -13.296875 L 0.570312 -10.46875 L 4.789062 -10.46875 Z M 4.789062 0 "/></g></g></g><g fill="#000000" fill-opacity="1"><g transform="translate(156.849213, 231.243633)"><g><path d="M 7.902344 0.265625 C 12.0625 0.265625 15.007812 -2.582031 15.007812 -6.648438 C 15.007812 -10.714844 12.0625 -13.5625 7.902344 -13.5625 C 3.742188 -13.5625 0.816406 -10.714844 0.816406 -6.648438 C 0.816406 -2.582031 3.742188 0.265625 7.902344 0.265625 Z M 3.894531 -6.648438 C 3.894531 -9.042969 5.546875 -10.695312 7.902344 -10.695312 C 10.277344 -10.695312 11.910156 -9.042969 11.910156 -6.648438 C 11.910156 -4.253906 10.277344 -2.601562 7.902344 -2.601562 C 5.546875 -2.601562 3.894531 -4.253906 3.894531 -6.648438 Z M 3.894531 -6.648438 "/></g></g></g><g fill="#000000" fill-opacity="1"><g transform="translate(176.472974, 231.243633)"><g><path d="M 1.597656 0 L 4.617188 0 L 4.617188 -4.140625 L 6.609375 -4.140625 L 8.984375 0 L 12.480469 0 L 9.726562 -4.617188 C 11.324219 -5.320312 12.253906 -6.761719 12.253906 -8.71875 C 12.253906 -11.550781 10.316406 -13.296875 7.277344 -13.296875 L 1.597656 -13.296875 Z M 4.578125 -6.6875 L 4.578125 -10.714844 L 6.878906 -10.714844 C 8.359375 -10.714844 9.195312 -9.992188 9.195312 -8.699219 C 9.195312 -7.410156 8.359375 -6.6875 6.878906 -6.6875 Z M 4.578125 -6.6875 "/></g></g></g><g fill="#000000" fill-opacity="1"><g transform="translate(193.64624, 231.243633)"><g><path d="M 5.074219 0 L 8.09375 0 L 8.09375 -4.691406 L 12.976562 -13.296875 L 9.535156 -13.296875 L 7.902344 -10.21875 L 6.59375 -7.808594 L 5.261719 -10.21875 L 3.609375 -13.296875 L 0.171875 -13.296875 L 5.074219 -4.65625 Z M 5.074219 0 "/></g></g></g><g fill="#000000" fill-opacity="1"><g transform="translate(210.591552, 231.243633)"><g/></g></g><g fill="#000000" fill-opacity="1"><g transform="translate(218.855639, 231.243633)"><g><path d="M 4.789062 0 L 7.808594 0 L 7.808594 -10.46875 L 12.027344 -10.46875 L 12.027344 -13.296875 L 0.570312 -13.296875 L 0.570312 -10.46875 L 4.789062 -10.46875 Z M 4.789062 0 "/></g></g></g><g fill="#000000" fill-opacity="1"><g transform="translate(235.250066, 231.243633)"><g><path d="M 1.597656 0 L 10.542969 0 L 10.542969 -2.566406 L 4.597656 -2.566406 L 4.597656 -5.472656 L 9.820312 -5.472656 L 9.820312 -7.996094 L 4.597656 -7.996094 L 4.597656 -10.753906 L 10.335938 -10.753906 L 10.335938 -13.296875 L 1.597656 -13.296875 Z M 1.597656 0 "/></g></g></g><g fill="#000000" fill-opacity="1"><g transform="translate(250.56171, 231.243633)"><g><path d="M 1.597656 0 L 10.429688 0 L 10.429688 -2.832031 L 4.617188 -2.832031 L 4.617188 -13.296875 L 1.597656 -13.296875 Z M 1.597656 0 "/></g></g></g><g fill="#000000" fill-opacity="1"><g transform="translate(265.303473, 231.243633)"><g><path d="M 1.597656 0 L 10.429688 0 L 10.429688 -2.832031 L 4.617188 -2.832031 L 4.617188 -13.296875 L 1.597656 -13.296875 Z M 1.597656 0 "/></g></g></g><g fill="#000000" fill-opacity="1"><g transform="translate(280.045225, 231.243633)"><g><path d="M 1.597656 0 L 10.542969 0 L 10.542969 -2.566406 L 4.597656 -2.566406 L 4.597656 -5.472656 L 9.820312 -5.472656 L 9.820312 -7.996094 L 4.597656 -7.996094 L 4.597656 -10.753906 L 10.335938 -10.753906 L 10.335938 -13.296875 L 1.597656 -13.296875 Z M 1.597656 0 "/></g></g></g><g fill="#000000" fill-opacity="1"><g transform="translate(295.356869, 231.243633)"><g><path d="M 1.597656 0 L 4.617188 0 L 4.617188 -4.140625 L 6.609375 -4.140625 L 8.984375 0 L 12.480469 0 L 9.726562 -4.617188 C 11.324219 -5.320312 12.253906 -6.761719 12.253906 -8.71875 C 12.253906 -11.550781 10.316406 -13.296875 7.277344 -13.296875 L 1.597656 -13.296875 Z M 4.578125 -6.6875 L 4.578125 -10.714844 L 6.878906 -10.714844 C 8.359375 -10.714844 9.195312 -9.992188 9.195312 -8.699219 C 9.195312 -7.410156 8.359375 -6.6875 6.878906 -6.6875 Z M 4.578125 -6.6875 "/></g></g></g><g clip-path="url(#5292fbdaa2)"><path fill="#000000" d="M 215.253906 106.558594 C 226.882812 106.558594 236.242188 115.933594 236.242188 127.585938 C 236.242188 139.234375 226.886719 148.609375 215.253906 148.609375 C 203.621094 148.609375 194.261719 139.234375 194.261719 127.585938 C 194.261719 115.933594 203.621094 106.558594 215.253906 106.558594 Z M 160.066406 106.558594 C 171.699219 106.558594 181.058594 115.933594 181.058594 127.585938 C 181.058594 139.234375 171.699219 148.609375 160.066406 148.609375 C 148.4375 148.609375 139.078125 139.234375 139.078125 127.585938 C 139.078125 115.933594 148.4375 106.558594 160.066406 106.558594 Z M 160.066406 99.945312 C 144.867188 99.945312 132.472656 112.359375 132.472656 127.585938 C 132.472656 142.8125 144.867188 155.226562 160.066406 155.226562 C 163.039062 155.226562 165.902344 154.75 168.589844 153.871094 L 187.660156 173.308594 L 206.734375 153.871094 C 209.417969 154.75 212.28125 155.226562 215.25 155.226562 C 230.453125 155.226562 242.84375 142.8125 242.84375 127.585938 C 242.84375 112.359375 230.453125 99.945312 215.253906 99.945312 C 200.148438 99.945312 187.816406 112.203125 187.660156 127.300781 C 187.503906 112.203125 175.175781 99.945312 160.066406 99.945312 Z M 160.066406 99.945312 " fill-opacity="1" fill-rule="nonzero"/></g><path fill="#000000" d="M 161.714844 112.769531 C 162.316406 114.214844 162.621094 115.765625 162.625 117.335938 C 162.625 123.886719 157.246094 129.277344 150.703125 129.277344 C 148.296875 129.277344 145.945312 128.546875 143.960938 127.183594 C 143.941406 127.488281 143.929688 127.792969 143.925781 128.09375 C 143.925781 136.59375 150.910156 143.589844 159.398438 143.589844 C 167.882812 143.589844 174.867188 136.59375 174.867188 128.09375 C 174.871094 120.460938 169.242188 113.910156 161.714844 112.769531 Z M 161.714844 112.769531 " fill-opacity="1" fill-rule="nonzero"/><path fill="#000000" d="M 218.238281 112.769531 C 218.835938 114.214844 219.144531 115.765625 219.148438 117.335938 C 219.148438 123.886719 213.769531 129.277344 207.230469 129.277344 C 204.820312 129.277344 202.472656 128.546875 200.488281 127.183594 C 200.464844 127.488281 200.457031 127.792969 200.453125 128.09375 C 200.453125 136.59375 207.4375 143.589844 215.925781 143.589844 C 224.414062 143.589844 231.394531 136.59375 231.394531 128.09375 C 231.390625 120.460938 225.765625 113.910156 218.238281 112.769531 Z M 218.238281 112.769531 " fill-opacity="1" fill-rule="nonzero"/><g clip-path="url(#348676f356)"><path fill="#f79320" d="M 128.628906 147.855469 L 125.074219 153.6875 C 141.917969 160.535156 153.101562 167.21875 153.101562 167.21875 C 142.070312 162.558594 132.082031 159.066406 123.410156 156.421875 L 120.523438 161.164062 C 141.972656 167.789062 157.066406 175.761719 157.066406 175.761719 C 142.003906 170.320312 128.878906 166.84375 118.429688 164.605469 L 116.097656 168.429688 C 147.332031 174.355469 172.21875 186.882812 172.21875 186.882812 C 144.078125 177.363281 122.640625 174.417969 113 173.515625 L 108.535156 180.835938 C 108.535156 180.835938 145.871094 181.484375 176.976562 193.078125 C 178.871094 200.4375 187.660156 200.320312 187.660156 200.320312 C 187.660156 200.320312 196.449219 200.4375 198.347656 193.078125 C 229.453125 181.484375 266.785156 180.835938 266.785156 180.835938 L 262.328125 173.511719 C 252.683594 174.417969 231.246094 177.359375 203.105469 186.878906 C 203.105469 186.878906 227.992188 174.347656 259.226562 168.425781 L 256.898438 164.601562 C 246.449219 166.839844 233.320312 170.316406 218.261719 175.761719 C 218.261719 175.761719 233.355469 167.785156 254.804688 161.160156 L 251.910156 156.421875 C 243.238281 159.066406 233.246094 162.558594 222.21875 167.21875 C 222.21875 167.21875 233.402344 160.535156 250.246094 153.6875 L 246.695312 147.855469 C 246.695312 147.855469 211.105469 158.539062 187.660156 191.296875 C 164.21875 158.539062 128.628906 147.855469 128.628906 147.855469 Z M 128.628906 147.855469 " fill-opacity="1" fill-rule="nonzero"/></g></svg>